<svg width="308" height="76" viewBox="0 0 308 76" fill="none" xmlns="http://www.w3.org/2000/svg">
<path d="M46.8951 56.24C45.3591 56.24 43.8391 55.824 42.3351 54.992C40.8311 54.128 39.6311 52.464 38.7351 50L37.5351 46.88H24.0951L20.2551 56H18.0951L31.5351 24.32H32.9751L43.5351 50C44.3351 51.856 45.0871 53.136 45.7911 53.84C46.4951 54.512 47.5031 54.912 48.8151 55.04V56C48.2391 56.16 47.5991 56.24 46.8951 56.24ZM36.5751 44.96L30.8151 31.04L24.8151 44.96H36.5751ZM51.6838 39.2C51.6838 37.568 51.4598 36.368 51.0118 35.6C50.5638 34.8 49.6678 34.4 48.3238 34.4H47.3638V33.44H51.6838C52.8678 33.44 53.7638 33.6 54.3718 33.92C55.0118 34.24 55.4758 34.72 55.7638 35.36H56.0038C56.6758 34.688 57.5398 34.128 58.5958 33.68C59.6838 33.2 60.8998 32.96 62.2438 32.96C63.5878 32.96 64.7398 33.216 65.6998 33.728C66.6598 34.208 67.4278 35.072 68.0038 36.32C68.8358 35.264 69.8918 34.448 71.1718 33.872C72.4838 33.264 73.8278 32.96 75.2038 32.96C77.2518 32.96 78.8838 33.6 80.0998 34.88C81.3158 36.16 81.9238 38.4 81.9238 41.6V56H77.6038V41.6C77.6038 39.296 77.2838 37.648 76.6438 36.656C76.0038 35.632 75.0438 35.12 73.7638 35.12C72.8678 35.12 71.9238 35.456 70.9318 36.128C69.9398 36.768 69.2038 37.472 68.7238 38.24C68.8838 38.72 68.9638 39.84 68.9638 41.6V56H64.6438V41.6C64.6438 39.296 64.3238 37.648 63.6838 36.656C63.0438 35.632 62.0838 35.12 60.8038 35.12C59.1078 35.12 57.5078 35.968 56.0038 37.664V56H51.6838V39.2ZM99.4513 56.48C97.8193 56.48 96.4753 56.224 95.4193 55.712C94.3633 55.2 93.5473 54.576 92.9713 53.84H92.7313L91.0513 56H88.6513V30.08C88.6513 28.448 88.4273 27.248 87.9793 26.48C87.5313 25.68 86.6353 25.28 85.2913 25.28H84.3313V24.32H88.6513C89.8353 24.32 90.7153 24.48 91.2913 24.8C91.8993 25.088 92.3313 25.632 92.5873 26.432C92.8433 27.232 92.9713 28.448 92.9713 30.08V34.4C93.8993 33.952 94.8273 33.6 95.7553 33.344C96.6833 33.088 97.7553 32.96 98.9713 32.96C101.947 32.96 104.203 34.064 105.739 36.272C107.307 38.48 108.091 41.296 108.091 44.72C108.091 48.112 107.339 50.928 105.835 53.168C104.331 55.376 102.203 56.48 99.4513 56.48ZM98.0113 54.56C99.8353 54.56 101.211 53.664 102.139 51.872C103.067 50.048 103.531 47.664 103.531 44.72C103.531 41.744 103.035 39.36 102.043 37.568C101.083 35.776 99.5793 34.88 97.5313 34.88C96.8593 34.88 96.1713 35.008 95.4673 35.264C94.7633 35.52 93.9313 35.872 92.9713 36.32V51.68C93.5473 52.544 94.2193 53.248 94.9873 53.792C95.7873 54.304 96.7953 54.56 98.0113 54.56ZM116.32 30.56C115.584 30.56 114.944 30.256 114.4 29.648C113.888 29.04 113.632 28.32 113.632 27.488C113.632 26.816 113.824 26.288 114.208 25.904C114.624 25.52 115.168 25.328 115.84 25.328C116.576 25.328 117.2 25.632 117.712 26.24C118.256 26.848 118.528 27.568 118.528 28.4C118.528 29.072 118.32 29.6 117.904 29.984C117.52 30.368 116.992 30.56 116.32 30.56ZM114.496 39.2C114.496 37.568 114.272 36.368 113.824 35.6C113.376 34.8 112.48 34.4 111.136 34.4H110.176V33.44H114.496C115.68 33.44 116.56 33.6 117.136 33.92C117.744 34.208 118.176 34.752 118.432 35.552C118.688 36.352 118.816 37.568 118.816 39.2V56H114.496V39.2ZM132.261 56.48C130.469 56.48 129.061 55.968 128.037 54.944C127.013 53.92 126.501 52.352 126.501 50.24V35.36H123.141V33.44H126.501V29.12L128.901 26.24H130.821V33.44H136.581V35.36H130.821V50.24C130.821 53.12 131.941 54.56 134.181 54.56C134.949 54.56 135.589 54.48 136.101 54.32C136.645 54.16 137.205 53.92 137.781 53.6L138.261 54.56C137.525 55.104 136.709 55.568 135.813 55.952C134.917 56.304 133.733 56.48 132.261 56.48ZM155.44 30.08C155.44 28.448 155.216 27.248 154.768 26.48C154.32 25.68 153.424 25.28 152.08 25.28H151.12V24.32H155.44C156.624 24.32 157.504 24.48 158.08 24.8C158.688 25.088 159.12 25.632 159.376 26.432C159.632 27.232 159.76 28.448 159.76 30.08V38.72H174.16V24.32H178.48V50.24C178.48 51.872 178.704 53.088 179.152 53.888C179.6 54.656 180.496 55.04 181.84 55.04H182.8V56H178.48C177.296 56 176.4 55.856 175.792 55.568C175.216 55.248 174.8 54.688 174.544 53.888C174.288 53.088 174.16 51.872 174.16 50.24V40.64H159.76V56H155.44V30.08ZM195.404 56.48C193.228 56.48 191.388 55.968 189.884 54.944C188.38 53.888 187.244 52.48 186.476 50.72C185.708 48.928 185.324 46.928 185.324 44.72C185.324 42.544 185.708 40.56 186.476 38.768C187.244 36.976 188.348 35.568 189.788 34.544C191.26 33.488 192.972 32.96 194.924 32.96C198.156 32.96 200.556 33.872 202.124 35.696C203.724 37.488 204.524 40.096 204.524 43.52L204.428 45.44H189.884C189.884 48.128 190.46 50.32 191.612 52.016C192.764 53.712 194.348 54.56 196.364 54.56C197.868 54.56 199.132 54.24 200.156 53.6C201.212 52.96 202.188 52 203.084 50.72L204.044 51.44C202.988 53.2 201.756 54.48 200.348 55.28C198.94 56.08 197.292 56.48 195.404 56.48ZM199.964 43.52C199.964 40.704 199.548 38.56 198.716 37.088C197.884 35.616 196.62 34.88 194.924 34.88C193.964 34.88 193.1 35.264 192.332 36.032C191.564 36.768 190.956 37.792 190.508 39.104C190.092 40.416 189.884 41.888 189.884 43.52H199.964ZM215.434 56.48C214.41 56.48 213.37 56.272 212.314 55.856C211.258 55.408 210.346 54.688 209.578 53.696C208.842 52.704 208.474 51.392 208.474 49.76C208.474 47.328 209.594 45.6 211.834 44.576C214.106 43.552 217.066 43.04 220.714 43.04H222.154C222.154 39.904 221.722 37.76 220.858 36.608C219.994 35.456 218.746 34.88 217.114 34.88C215.674 34.88 214.522 35.184 213.658 35.792C212.794 36.4 212.186 37.456 211.834 38.96H209.674C209.674 37.872 209.738 37.024 209.866 36.416C209.994 35.776 210.33 35.184 210.874 34.64C211.45 34.064 212.394 33.648 213.706 33.392C215.05 33.104 216.506 32.96 218.074 32.96C220.666 32.96 222.714 33.664 224.218 35.072C225.722 36.448 226.474 39.104 226.474 43.04V56H224.074L222.394 53.84H222.154C221.578 54.576 220.73 55.2 219.61 55.712C218.49 56.224 217.098 56.48 215.434 56.48ZM217.594 54.32C218.65 54.32 219.53 54.064 220.234 53.552C220.938 53.04 221.578 52.336 222.154 51.44V44.96H220.714C218.346 44.96 216.474 45.408 215.098 46.304C213.722 47.168 213.034 48.32 213.034 49.76C213.034 51.232 213.466 52.368 214.33 53.168C215.226 53.936 216.314 54.32 217.594 54.32ZM233.359 30.08C233.359 28.448 233.135 27.248 232.687 26.48C232.239 25.68 231.343 25.28 229.999 25.28H229.039V24.32H233.359C234.543 24.32 235.423 24.48 235.999 24.8C236.607 25.088 237.039 25.632 237.295 26.432C237.551 27.232 237.679 28.448 237.679 30.08V56H233.359V30.08ZM251.464 56.48C249.672 56.48 248.264 55.968 247.24 54.944C246.216 53.92 245.704 52.352 245.704 50.24V35.36H242.344V33.44H245.704V29.12L248.104 26.24H250.024V33.44H255.784V35.36H250.024V50.24C250.024 53.12 251.144 54.56 253.384 54.56C254.152 54.56 254.792 54.48 255.304 54.32C255.848 54.16 256.408 53.92 256.984 53.6L257.464 54.56C256.728 55.104 255.912 55.568 255.016 55.952C254.12 56.304 252.936 56.48 251.464 56.48ZM261.011 30.08C261.011 28.448 260.787 27.248 260.339 26.48C259.891 25.68 258.995 25.28 257.651 25.28H256.691V24.32H261.011C262.195 24.32 263.075 24.48 263.651 24.8C264.259 25.088 264.691 25.632 264.947 26.432C265.203 27.232 265.331 28.448 265.331 30.08V35.36C266.003 34.688 266.867 34.128 267.923 33.68C269.011 33.2 270.227 32.96 271.571 32.96C273.971 32.96 275.923 33.6 277.427 34.88C278.963 36.16 279.731 38.4 279.731 41.6V56H275.411V41.6C275.411 39.36 274.899 37.728 273.875 36.704C272.883 35.648 271.635 35.12 270.131 35.12C268.435 35.12 266.835 35.968 265.331 37.664V56H261.011V30.08Z" fill="#65558f"/>
<path d="M190.574 62.452C191.246 62.34 192.03 62.284 192.926 62.284C193.822 62.284 194.536 62.4847 195.068 62.886C195.6 63.278 195.866 63.8427 195.866 64.58C195.866 65.0933 195.731 65.5273 195.46 65.882C195.199 66.2273 194.821 66.4653 194.326 66.596V66.68C194.942 66.7547 195.437 67.0253 195.81 67.492C196.184 67.9587 196.37 68.5093 196.37 69.144C196.37 70.0867 196.034 70.8287 195.362 71.37C194.7 71.902 193.85 72.168 192.814 72.168C191.778 72.168 191.018 72.0607 190.532 71.846L190.574 62.452ZM192.702 71.258C193.486 71.258 194.107 71.09 194.564 70.754C195.022 70.418 195.25 69.8953 195.25 69.186C195.25 68.4673 195.054 67.9727 194.662 67.702C194.27 67.422 193.668 67.282 192.856 67.282L191.624 67.338V71.188C191.886 71.2347 192.245 71.258 192.702 71.258ZM194.186 65.98C194.578 65.7 194.774 65.28 194.774 64.72C194.774 64.16 194.611 63.768 194.284 63.544C193.958 63.3107 193.482 63.194 192.856 63.194L191.624 63.25V66.47L192.632 66.428C193.276 66.4 193.794 66.2507 194.186 65.98ZM202.666 66.862C202.666 66.5913 202.582 66.386 202.414 66.246C202.246 66.106 202.022 66.036 201.742 66.036C201.182 66.036 200.743 66.2693 200.426 66.736C200.108 67.1933 199.926 67.7487 199.88 68.402C201.737 68.402 202.666 67.8887 202.666 66.862ZM201.462 72.168C199.707 72.168 198.83 71.048 198.83 68.808C198.83 67.7813 199.086 66.932 199.6 66.26C200.122 65.588 200.855 65.252 201.798 65.252C202.376 65.252 202.834 65.392 203.17 65.672C203.515 65.9427 203.688 66.3207 203.688 66.806C203.688 67.282 203.571 67.674 203.338 67.982C203.114 68.2807 202.806 68.5093 202.414 68.668C201.676 68.9667 200.822 69.116 199.852 69.116C199.852 70.6 200.444 71.342 201.63 71.342C202.227 71.342 202.792 71.1787 203.324 70.852L203.478 71.398C203.244 71.6313 202.936 71.818 202.554 71.958C202.18 72.098 201.816 72.168 201.462 72.168ZM206.076 66.386C206.076 65.938 206.02 65.6067 205.908 65.392L206.706 65.252C206.865 65.2893 206.963 65.3827 207 65.532C207.047 65.6813 207.07 65.8353 207.07 65.994C207.07 66.106 207.052 66.7407 207.014 67.898C206.977 69.0553 206.958 69.6667 206.958 69.732C206.958 70.2267 207.028 70.6233 207.168 70.922C207.308 71.2207 207.574 71.37 207.966 71.37C208.358 71.37 208.68 71.2393 208.932 70.978C209.184 70.7167 209.385 70.376 209.534 69.956C209.833 69.0973 209.982 68.1687 209.982 67.17V65.42H210.92L210.934 71.58C210.934 72.7653 210.715 73.6893 210.276 74.352C209.847 75.024 209.119 75.36 208.092 75.36C207.719 75.36 207.336 75.29 206.944 75.15C206.552 75.0193 206.24 74.8327 206.006 74.59L206.16 74.044C206.702 74.3987 207.332 74.576 208.05 74.576C208.778 74.576 209.278 74.3193 209.548 73.806C209.828 73.302 209.968 72.56 209.968 71.58C209.968 71.0387 210.001 70.6233 210.066 70.334H209.982C209.637 71.5567 208.895 72.168 207.756 72.168C207.038 72.168 206.557 71.986 206.314 71.622C206.072 71.258 205.95 70.7307 205.95 70.04C205.95 69.9653 205.969 69.354 206.006 68.206C206.053 67.058 206.076 66.4513 206.076 66.386ZM216.427 71.426C216.893 71.426 217.276 71.2813 217.575 70.992C217.873 70.7027 218.074 70.3527 218.177 69.942C218.289 69.5313 218.345 69.06 218.345 68.528C218.345 66.8573 217.752 66.022 216.567 66.022C216.128 66.022 215.764 66.162 215.475 66.442C214.952 66.9367 214.691 67.7253 214.691 68.808C214.691 70.5533 215.269 71.426 216.427 71.426ZM219.395 68.542C219.395 69.5687 219.133 70.432 218.611 71.132C218.097 71.8227 217.351 72.168 216.371 72.168C215.4 72.168 214.709 71.888 214.299 71.328C213.888 70.7587 213.683 69.928 213.683 68.836C213.683 67.744 213.921 66.876 214.397 66.232C214.873 65.5787 215.591 65.252 216.553 65.252C217.514 65.252 218.228 65.546 218.695 66.134C219.161 66.7127 219.395 67.5153 219.395 68.542ZM223.126 65.7C223.126 66.1947 223.089 66.61 223.014 66.946H223.098C223.229 66.4233 223.481 66.0127 223.854 65.714C224.237 65.406 224.699 65.252 225.24 65.252C225.978 65.252 226.486 65.4387 226.766 65.812C227.046 66.176 227.186 66.7267 227.186 67.464C227.186 67.492 227.177 67.968 227.158 68.892C227.149 69.816 227.144 70.404 227.144 70.656C227.144 70.908 227.172 71.0947 227.228 71.216C227.294 71.3373 227.494 71.398 227.83 71.398L227.858 72.028C227.728 72.084 227.536 72.112 227.284 72.112C226.836 72.112 226.528 72.0093 226.36 71.804C226.202 71.5987 226.122 71.272 226.122 70.824C226.122 70.8053 226.132 70.3013 226.15 69.312C226.169 68.3227 226.178 67.8093 226.178 67.772C226.178 67.2307 226.108 66.8107 225.968 66.512C225.828 66.204 225.548 66.05 225.128 66.05C224.718 66.05 224.372 66.1807 224.092 66.442C223.822 66.7033 223.616 67.044 223.476 67.464C223.224 68.276 223.098 69.1393 223.098 70.054V72H222.132V65.42L223.126 65.294V65.7ZM232.309 72.168C231.497 72.168 230.905 71.888 230.531 71.328C230.158 70.768 229.971 69.9747 229.971 68.948C229.971 67.912 230.233 67.0393 230.755 66.33C231.287 65.6113 232.067 65.252 233.093 65.252C233.495 65.252 233.901 65.336 234.311 65.504V61.738L235.249 61.57V69.242C235.249 70.0727 235.31 70.6467 235.431 70.964C235.553 71.272 235.823 71.426 236.243 71.426L236.271 72.056C236.15 72.0933 235.963 72.112 235.711 72.112C235.245 72.112 234.918 71.972 234.731 71.692C234.554 71.412 234.465 71.09 234.465 70.726C234.465 70.6327 234.47 70.53 234.479 70.418H234.395C234.022 71.5847 233.327 72.168 232.309 72.168ZM234.311 67.646V66.204C234.041 66.064 233.635 65.994 233.093 65.994C231.712 65.994 231.021 67.0347 231.021 69.116C231.021 70.6373 231.483 71.398 232.407 71.398C232.771 71.398 233.084 71.2813 233.345 71.048C233.616 70.8053 233.817 70.488 233.947 70.096C234.19 69.3587 234.311 68.542 234.311 67.646ZM245.444 71.3L245.584 71.916C245.239 72.084 244.823 72.168 244.338 72.168C243.647 72.168 243.19 71.9813 242.966 71.608C242.742 71.2347 242.63 70.642 242.63 69.83V66.162H241.51V65.56L242.63 65.42V63.964L243.638 63.796V65.42H245.444V66.162H243.638V69.522C243.638 70.39 243.713 70.9173 243.862 71.104C244.049 71.3187 244.301 71.426 244.618 71.426C244.935 71.426 245.211 71.384 245.444 71.3ZM248.95 65.56C248.95 66.0547 248.912 66.47 248.838 66.806H248.922C249.304 65.77 250.018 65.252 251.064 65.252C251.801 65.252 252.31 65.4387 252.59 65.812C252.87 66.176 253.01 66.7267 253.01 67.464C253.01 67.492 253 67.968 252.982 68.892C252.972 69.816 252.968 70.404 252.968 70.656C252.968 70.908 252.996 71.0947 253.052 71.216C253.117 71.3373 253.318 71.398 253.654 71.398L253.682 72.028C253.551 72.084 253.36 72.112 253.108 72.112C252.66 72.112 252.352 72.0093 252.184 71.804C252.025 71.5987 251.946 71.272 251.946 70.824C251.946 70.8053 251.955 70.3013 251.974 69.312C251.992 68.3227 252.002 67.8093 252.002 67.772C252.002 67.2307 251.932 66.8107 251.792 66.512C251.652 66.204 251.344 66.05 250.868 66.05C250.392 66.05 249.995 66.26 249.678 66.68C249.37 67.1 249.164 67.5713 249.062 68.094C248.968 68.6073 248.922 69.1673 248.922 69.774V72H247.956V61.738L248.95 61.57V65.56ZM259.645 66.862C259.645 66.5913 259.561 66.386 259.393 66.246C259.225 66.106 259.001 66.036 258.721 66.036C258.161 66.036 257.722 66.2693 257.405 66.736C257.087 67.1933 256.905 67.7487 256.859 68.402C258.716 68.402 259.645 67.8887 259.645 66.862ZM258.441 72.168C256.686 72.168 255.809 71.048 255.809 68.808C255.809 67.7813 256.065 66.932 256.579 66.26C257.101 65.588 257.834 65.252 258.777 65.252C259.355 65.252 259.813 65.392 260.149 65.672C260.494 65.9427 260.667 66.3207 260.667 66.806C260.667 67.282 260.55 67.674 260.317 67.982C260.093 68.2807 259.785 68.5093 259.393 68.668C258.655 68.9667 257.801 69.116 256.831 69.116C256.831 70.6 257.423 71.342 258.609 71.342C259.206 71.342 259.771 71.1787 260.303 70.852L260.457 71.398C260.223 71.6313 259.915 71.818 259.533 71.958C259.159 72.098 258.795 72.168 258.441 72.168ZM267.885 71.398C268.295 71.398 268.641 71.3047 268.921 71.118C269.201 70.922 269.341 70.6467 269.341 70.292C269.341 69.9187 269.163 69.6247 268.809 69.41C268.631 69.3073 268.417 69.2047 268.165 69.102C267.913 68.99 267.759 68.92 267.703 68.892C267.236 68.6867 266.872 68.444 266.611 68.164C266.359 67.884 266.233 67.4873 266.233 66.974C266.233 66.4513 266.443 66.036 266.863 65.728C267.283 65.4107 267.777 65.252 268.347 65.252C268.916 65.252 269.429 65.364 269.887 65.588L269.733 66.218C269.266 66.0873 268.851 66.022 268.487 66.022C268.132 66.022 267.824 66.106 267.563 66.274C267.301 66.4327 267.171 66.6567 267.171 66.946C267.171 67.2353 267.259 67.464 267.437 67.632C267.614 67.7907 267.796 67.912 267.983 67.996C268.179 68.08 268.384 68.1687 268.599 68.262C268.823 68.346 268.967 68.4067 269.033 68.444C269.098 68.4813 269.219 68.5513 269.397 68.654C269.574 68.7473 269.695 68.836 269.761 68.92C269.835 69.004 269.919 69.116 270.013 69.256C270.19 69.4893 270.279 69.8207 270.279 70.25C270.279 70.866 270.05 71.342 269.593 71.678C269.135 72.0047 268.552 72.168 267.843 72.168C267.143 72.168 266.522 71.9347 265.981 71.468L266.135 70.908C266.667 71.2347 267.25 71.398 267.885 71.398ZM274.799 72.168C273.054 72.168 272.181 71.0947 272.181 68.948C272.181 67.884 272.438 67.002 272.951 66.302C273.474 65.602 274.216 65.252 275.177 65.252C275.728 65.252 276.218 65.3453 276.647 65.532L276.493 66.26C276.111 66.1293 275.709 66.064 275.289 66.064C273.917 66.064 273.231 67.0347 273.231 68.976C273.231 70.5533 273.81 71.342 274.967 71.342C275.555 71.342 276.106 71.1787 276.619 70.852L276.773 71.398C276.54 71.6313 276.237 71.818 275.863 71.958C275.499 72.098 275.145 72.168 274.799 72.168ZM281.423 71.426C281.89 71.426 282.272 71.2813 282.571 70.992C282.87 70.7027 283.07 70.3527 283.173 69.942C283.285 69.5313 283.341 69.06 283.341 68.528C283.341 66.8573 282.748 66.022 281.563 66.022C281.124 66.022 280.76 66.162 280.471 66.442C279.948 66.9367 279.687 67.7253 279.687 68.808C279.687 70.5533 280.266 71.426 281.423 71.426ZM284.391 68.542C284.391 69.5687 284.13 70.432 283.607 71.132C283.094 71.8227 282.347 72.168 281.367 72.168C280.396 72.168 279.706 71.888 279.295 71.328C278.884 70.7587 278.679 69.928 278.679 68.836C278.679 67.744 278.917 66.876 279.393 66.232C279.869 65.5787 280.588 65.252 281.549 65.252C282.51 65.252 283.224 65.546 283.691 66.134C284.158 66.7127 284.391 67.5153 284.391 68.542ZM287.856 65.294C288.043 65.3687 288.136 65.588 288.136 65.952C288.136 66.3067 288.104 66.6567 288.038 67.002H288.122C288.44 65.8353 289.144 65.252 290.236 65.252C291.048 65.252 291.618 65.518 291.944 66.05C292.271 66.5727 292.434 67.3613 292.434 68.416C292.434 69.4707 292.173 70.362 291.65 71.09C291.137 71.8087 290.358 72.168 289.312 72.168C288.911 72.168 288.505 72.084 288.094 71.916V75.192H287.156V67.478C287.156 66.5353 287.105 65.84 287.002 65.392L287.856 65.294ZM288.094 69.774V71.216C288.365 71.356 288.771 71.426 289.312 71.426C290.694 71.426 291.384 70.334 291.384 68.15C291.384 66.75 290.946 66.05 290.068 66.05C289.704 66.05 289.387 66.1713 289.116 66.414C288.846 66.6473 288.64 66.96 288.5 67.352C288.23 68.0987 288.094 68.906 288.094 69.774ZM298.571 66.862C298.571 66.5913 298.487 66.386 298.319 66.246C298.151 66.106 297.927 66.036 297.647 66.036C297.087 66.036 296.649 66.2693 296.331 66.736C296.014 67.1933 295.832 67.7487 295.785 68.402C297.643 68.402 298.571 67.8887 298.571 66.862ZM297.367 72.168C295.613 72.168 294.735 71.048 294.735 68.808C294.735 67.7813 294.992 66.932 295.505 66.26C296.028 65.588 296.761 65.252 297.703 65.252C298.282 65.252 298.739 65.392 299.075 65.672C299.421 65.9427 299.593 66.3207 299.593 66.806C299.593 67.282 299.477 67.674 299.243 67.982C299.019 68.2807 298.711 68.5093 298.319 68.668C297.582 68.9667 296.728 69.116 295.757 69.116C295.757 70.6 296.35 71.342 297.535 71.342C298.133 71.342 298.697 71.1787 299.229 70.852L299.383 71.398C299.15 71.6313 298.842 71.818 298.459 71.958C298.086 72.098 297.722 72.168 297.367 72.168Z" fill="#65558f"/>
</svg>
